<svg xmlns="http://www.w3.org/2000/svg" viewBox="0 0 124.59 45.26"><path d="M-84.12,309.76c-4.62-.43-17.8-3.26-17.8-10.68,0-2.52.64-3.85,3-7.12l.08-.11c.11-.17.22-.34.32-.51a15.65,15.65,0,0,0,2.61-8.87,15.81,15.81,0,0,0-.09-1.69,16.07,16.07,0,0,0-8.32-12.67l-.34-.2-.79-.37c-.25-.12-.49-.24-.75-.34l-.48-.18q-.52-.19-1-.36l-.34-.08c-.39-.11-.79-.21-1.19-.29l-.47-.07c-.36-.06-.72-.13-1.08-.16-.53-.05-1.07-.08-1.6-.08s-1,0-1.58.08a16.46,16.46,0,0,0-10.9,5.64l0,0c-.26.3-.5.62-.74.93-.11.15-.23.3-.33.45s-.26.39-.38.59-.36.57-.53.86l-.14.28c-.21.39-.4.8-.58,1.21a.14.14,0,0,0,0,.06,15.24,15.24,0,0,0-.94,3,2.17,2.17,0,0,0,0,.25,12.39,12.39,0,0,0-.21,1.38,16,16,0,0,0-.09,1.71,16.06,16.06,0,0,0,1.31,6.63c2.47,6.25,1.75,9.95.31,12.33s-5.45,4.94-13.3,6-53.16,2.34-54.07,2.34a17.49,17.49,0,0,0-7.06,1.48H-77.17C-79.21,310.29-80.37,310.11-84.12,309.76Z" transform="translate(201.76 -265.98)" style="fill:#c02035"/></svg>