<?xml version="1.0" standalone="no"?>
<!DOCTYPE svg PUBLIC "-//W3C//DTD SVG 20010904//EN"
 "http://www.w3.org/TR/2001/REC-SVG-20010904/DTD/svg10.dtd">
<svg version="1.0" xmlns="http://www.w3.org/2000/svg"
 width="640.000000pt" height="640.000000pt" viewBox="0 0 640.000000 640.000000"
 preserveAspectRatio="xMidYMid meet">
<metadata>
Created by potrace 1.11, written by Peter Selinger 2001-2013
</metadata>
<g transform="translate(0.000000,640.000000) scale(0.100000,-0.100000)"
fill="#000000" stroke="none">
<path d="M2687 5624 c-1 -1 -42 -5 -92 -8 -149 -11 -193 -16 -315 -41 -60 -12
-86 -17 -105 -21 -32 -6 -226 -62 -275 -80 -192 -70 -420 -174 -491 -224 -15
-11 -30 -20 -33 -20 -18 0 -265 -176 -376 -267 -48 -40 -285 -278 -331 -333
-30 -36 -57 -66 -61 -68 -5 -2 -8 -10 -8 -17 0 -7 -3 -15 -8 -17 -11 -5 -102
-133 -161 -227 -52 -83 -156 -280 -199 -380 -25 -55 -127 -358 -136 -401 -9
-46 -15 -71 -20 -88 -3 -9 -7 -34 -11 -56 -3 -21 -7 -41 -9 -45 -2 -3 -7 -33
-11 -66 -4 -33 -9 -71 -11 -85 -25 -182 -25 -586 1 -718 2 -11 6 -43 10 -73 4
-30 9 -57 10 -60 2 -3 7 -28 11 -55 3 -27 9 -53 12 -59 4 -5 8 -21 10 -35 6
-49 78 -282 112 -365 98 -240 199 -428 326 -605 37 -52 73 -100 78 -106 6 -6
22 -26 36 -44 14 -19 45 -56 70 -83 25 -27 52 -57 60 -67 14 -17 19 -14 90 55
41 40 98 94 126 121 29 27 125 119 215 205 90 86 209 199 263 251 98 94 99 95
80 114 -88 91 -195 243 -266 381 -44 86 -106 234 -113 271 -2 9 -4 17 -5 17
-1 0 -3 7 -5 15 -1 8 -12 51 -23 95 -11 44 -23 103 -27 130 -3 28 -9 66 -12
85 -3 19 -6 96 -6 170 0 164 8 236 39 375 3 17 7 37 8 45 1 9 5 20 8 25 3 6 9
26 13 45 11 55 91 251 130 320 19 34 35 64 35 67 0 9 103 157 151 217 69 85
201 213 284 275 39 29 77 58 86 65 36 29 218 128 289 156 41 17 84 35 95 40
52 23 225 66 350 86 58 10 428 10 465 1 14 -3 41 -8 60 -11 186 -25 442 -122
630 -239 36 -23 67 -44 70 -47 3 -3 18 -14 34 -24 33 -21 194 -162 213 -186
10 -13 20 -7 70 41 32 31 109 105 172 165 63 60 131 125 151 144 385 369 410
391 410 373 0 -4 14 -24 30 -43 17 -19 50 -60 73 -90 23 -30 45 -56 50 -58 4
-2 7 -8 7 -14 0 -6 14 -28 31 -49 17 -21 27 -39 23 -39 -4 0 0 -8 9 -18 22
-24 121 -234 142 -302 10 -30 21 -62 25 -70 7 -14 15 -45 24 -95 2 -11 9 -38
14 -60 6 -22 13 -60 16 -85 3 -25 8 -67 11 -95 9 -75 10 -230 2 -315 -7 -76
-10 -94 -27 -185 -9 -46 -12 -64 -24 -112 -3 -10 -19 -60 -36 -112 -105 -314
-310 -601 -585 -814 -192 -149 -498 -287 -710 -321 -16 -2 -30 -5 -30 -6 0 -2
-6 -3 -120 -16 -126 -15 -376 -9 -470 12 -11 2 -31 6 -45 8 -113 18 -281 75
-430 144 -56 26 -175 95 -178 104 -2 4 -8 8 -13 8 -19 0 -137 93 -233 182 -33
32 -65 58 -69 58 -5 0 -23 -15 -41 -32 -18 -18 -113 -109 -211 -203 -98 -93
-208 -198 -244 -233 -36 -35 -112 -107 -168 -160 -57 -53 -103 -101 -103 -107
0 -12 188 -193 230 -222 14 -9 27 -19 30 -22 33 -37 260 -193 378 -260 210
-118 496 -232 694 -277 10 -2 28 -6 41 -10 12 -3 33 -7 47 -10 14 -3 33 -7 43
-10 10 -3 32 -7 50 -10 18 -2 43 -6 57 -9 14 -3 48 -8 75 -11 28 -3 79 -9 115
-14 36 -4 169 -6 295 -4 225 3 252 4 345 18 92 14 106 17 155 26 28 6 60 12
73 15 13 2 33 7 45 11 12 4 29 9 37 10 17 2 93 24 195 56 45 14 117 42 185 71
14 6 27 11 30 12 30 7 80 31 80 37 0 4 6 8 13 8 6 0 39 14 72 31 33 18 74 38
90 47 17 8 49 28 72 44 23 15 44 28 48 28 9 0 173 114 251 175 164 128 344
309 497 500 78 98 279 425 292 475 3 10 65 145 75 162 5 10 10 22 10 27 0 5 7
25 15 45 8 20 15 38 15 41 0 3 7 19 15 35 9 17 13 30 11 30 -3 0 2 16 10 35 8
19 12 35 10 35 -3 0 1 15 9 33 12 30 61 236 72 302 2 17 6 41 8 55 6 33 14
105 24 205 9 92 7 428 -4 495 -4 25 -8 65 -10 90 -2 25 -4 45 -5 45 -1 0 -4
14 -6 30 -12 78 -59 293 -71 325 -3 8 -7 21 -9 27 -15 75 -99 290 -166 431
-107 223 -284 484 -453 669 l-40 43 -75 -71 c-154 -146 -376 -358 -494 -470
-66 -64 -141 -135 -165 -157 l-44 -41 -71 69 c-165 160 -398 337 -556 421 -25
13 -47 26 -50 29 -10 11 -285 141 -303 144 -7 1 -18 5 -25 10 -21 13 -282 96
-302 96 -11 0 -20 5 -20 11 0 5 -4 8 -8 5 -4 -3 -26 0 -48 5 -21 6 -48 12 -59
14 -11 2 -31 6 -45 10 -63 14 -223 35 -303 40 -27 2 -51 6 -54 9 -3 3 -14 1
-24 -5 -11 -5 -19 -6 -19 -2 0 7 -256 13 -263 7z"/>
<path d="M3174 3812 c-76 -15 -80 -16 -109 -27 -11 -4 -35 -14 -53 -21 -18 -7
-35 -13 -39 -13 -3 1 -9 -3 -12 -8 -3 -4 -24 -20 -46 -34 -134 -87 -244 -252
-276 -414 -11 -54 -13 -205 -4 -245 3 -14 8 -35 11 -48 19 -93 93 -221 172
-300 53 -52 133 -112 151 -112 6 0 11 -4 11 -10 0 -5 6 -10 14 -10 7 0 33 -9
57 -19 24 -11 58 -22 74 -26 67 -14 135 -21 166 -18 19 1 57 4 84 7 122 10
266 80 364 176 73 72 85 88 131 174 90 173 96 398 13 574 -127 273 -425 430
-709 374z"/>
</g>
</svg>
